<svg xmlns="http://www.w3.org/2000/svg" xmlns:xlink="http://www.w3.org/1999/xlink" width="500" zoomAndPan="magnify" viewBox="0 0 375 374.999991" height="500" preserveAspectRatio="xMidYMid meet" version="1.0"><defs><g/><clipPath id="id1"><path d="M 94.890625 94.890625 L 280.140625 94.890625 L 280.140625 280.140625 L 94.890625 280.140625 Z M 94.890625 94.890625 " clip-rule="nonzero"/></clipPath></defs><path fill="#ffffff" d="M 278.316406 187.507812 C 278.316406 137.355469 237.660156 96.699219 187.507812 96.699219 C 137.355469 96.699219 96.699219 137.355469 96.699219 187.507812 C 96.699219 237.660156 137.355469 278.316406 187.507812 278.316406 C 237.660156 278.316406 278.316406 237.660156 278.316406 187.507812 " fill-opacity="1" fill-rule="nonzero"/><g clip-path="url(#id1)"><path fill="#000000" d="M 187.507812 98.503906 C 138.429688 98.503906 98.503906 138.429688 98.503906 187.507812 C 98.503906 236.582031 138.429688 276.507812 187.507812 276.507812 C 236.582031 276.507812 276.511719 236.582031 276.511719 187.507812 C 276.511719 138.429688 236.582031 98.503906 187.507812 98.503906 Z M 187.507812 280.121094 C 162.769531 280.121094 139.511719 270.488281 122.019531 252.996094 C 104.527344 235.503906 94.890625 212.246094 94.890625 187.507812 C 94.890625 162.769531 104.527344 139.511719 122.019531 122.019531 C 139.511719 104.527344 162.769531 94.890625 187.507812 94.890625 C 212.246094 94.890625 235.503906 104.527344 252.996094 122.019531 C 270.488281 139.511719 280.121094 162.769531 280.121094 187.507812 C 280.121094 212.246094 270.488281 235.503906 252.996094 252.996094 C 235.503906 270.488281 212.246094 280.121094 187.507812 280.121094 " fill-opacity="1" fill-rule="nonzero"/></g><path fill="#ffffff" d="M 270.679688 187.507812 C 270.679688 141.570312 233.441406 104.335938 187.507812 104.335938 C 141.570312 104.335938 104.335938 141.570312 104.335938 187.507812 C 104.335938 233.441406 141.570312 270.679688 187.507812 270.679688 C 233.441406 270.679688 270.679688 233.441406 270.679688 187.507812 " fill-opacity="1" fill-rule="nonzero"/><path fill="#ffffff" d="M 264.695312 187.507812 C 264.695312 144.878906 230.136719 110.320312 187.507812 110.320312 C 144.878906 110.320312 110.320312 144.878906 110.320312 187.507812 C 110.320312 230.136719 144.878906 264.695312 187.507812 264.695312 C 230.136719 264.695312 264.695312 230.136719 264.695312 187.507812 " fill-opacity="1" fill-rule="nonzero"/><path fill="#000000" d="M 245.894531 197.207031 C 242.472656 192.503906 233.816406 196.894531 219.480469 204.175781 L 218.035156 204.910156 C 217.144531 205.359375 216.789062 206.449219 217.242188 207.335938 C 217.691406 208.226562 218.777344 208.582031 219.667969 208.128906 L 221.117188 207.394531 C 227.355469 204.230469 232.742188 201.492188 236.777344 200.019531 C 241.554688 198.277344 242.703125 198.957031 242.972656 199.332031 C 243.449219 199.988281 243.589844 200.621094 243.417969 201.378906 C 242.871094 203.835938 239.128906 208.460938 224.421875 216.550781 C 209.871094 224.546875 199.074219 228.691406 193.183594 228.523438 C 187.417969 228.359375 182.351562 226.980469 175.683594 223.753906 C 173.285156 222.59375 171.144531 221.503906 169.148438 220.429688 C 169.136719 220.421875 169.128906 220.417969 169.117188 220.410156 C 169.058594 220.378906 169.003906 220.347656 168.945312 220.320312 L 168.175781 219.902344 C 162.640625 217.015625 155.414062 216.105469 149.074219 215.597656 C 148.078125 215.523438 147.210938 216.261719 147.132812 217.253906 C 147.050781 218.25 147.792969 219.117188 148.789062 219.199219 C 154.765625 219.675781 161.542969 220.515625 166.472656 223.082031 L 167.230469 223.496094 C 167.28125 223.527344 167.335938 223.554688 167.386719 223.582031 C 167.429688 223.605469 167.46875 223.628906 167.507812 223.648438 C 169.53125 224.738281 171.691406 225.835938 174.109375 227.003906 C 181.273438 230.46875 186.769531 231.953125 193.082031 232.132812 C 193.222656 232.136719 193.367188 232.140625 193.511719 232.140625 C 200.179688 232.140625 211.160156 227.960938 226.160156 219.714844 C 239.277344 212.503906 245.878906 206.929688 246.941406 202.167969 C 247.34375 200.382812 246.988281 198.710938 245.894531 197.207031 " fill-opacity="1" fill-rule="nonzero"/><path fill="#000000" d="M 149.332031 193.605469 C 152.152344 192.964844 155.140625 192.121094 158.472656 191.023438 C 162.660156 189.648438 167.679688 188.339844 173.183594 189.058594 C 176.980469 189.558594 180.417969 191.773438 184.058594 194.117188 C 186.84375 195.914062 189.726562 197.769531 193.085938 199.128906 C 204.699219 203.808594 212.351562 210.714844 211.433594 213.757812 C 211.167969 214.636719 210.796875 214.921875 210.503906 215.070312 C 208.652344 216.023438 203.886719 214.394531 198.367188 212.507812 C 196.941406 212.019531 195.582031 211.535156 194.257812 211.066406 C 187.71875 208.738281 182.070312 206.734375 173.957031 206.085938 C 172.964844 206.003906 172.09375 206.75 172.011719 207.742188 C 171.933594 208.738281 172.675781 209.605469 173.671875 209.6875 C 181.308594 210.296875 186.75 212.230469 193.050781 214.46875 C 194.386719 214.945312 195.757812 215.429688 197.199219 215.925781 C 202.109375 217.601562 206.039062 218.949219 209.054688 218.949219 C 210.222656 218.949219 211.253906 218.746094 212.152344 218.285156 C 213.476562 217.605469 214.394531 216.433594 214.890625 214.800781 C 217.015625 207.75 203.824219 199.5625 194.4375 195.777344 C 191.394531 194.550781 188.660156 192.789062 186.015625 191.082031 C 182.023438 188.511719 178.257812 186.082031 173.652344 185.476562 C 167.390625 184.660156 161.648438 186.179688 157.34375 187.59375 C 154.121094 188.65625 151.238281 189.46875 148.53125 190.082031 C 147.558594 190.304688 146.949219 191.273438 147.171875 192.246094 C 147.394531 193.21875 148.359375 193.828125 149.332031 193.605469 " fill-opacity="1" fill-rule="nonzero"/><path fill="#000000" d="M 156.980469 170.105469 C 157.867188 169.652344 158.222656 168.566406 157.773438 167.679688 C 157.320312 166.789062 156.234375 166.433594 155.34375 166.882812 L 153.898438 167.617188 C 147.660156 170.785156 142.273438 173.519531 138.234375 174.992188 C 133.457031 176.734375 132.3125 176.054688 132.039062 175.683594 C 131.5625 175.027344 131.425781 174.394531 131.59375 173.632812 C 132.144531 171.175781 135.886719 166.550781 150.589844 158.464844 C 165.144531 150.464844 175.949219 146.328125 181.828125 146.492188 C 187.59375 146.652344 192.664062 148.035156 199.332031 151.257812 C 201.726562 152.417969 203.863281 153.507812 205.863281 154.582031 C 205.875 154.589844 205.882812 154.597656 205.894531 154.601562 C 205.953125 154.632812 206.011719 154.664062 206.070312 154.695312 L 206.835938 155.113281 C 212.375 158 219.597656 158.90625 225.9375 159.417969 C 226.933594 159.496094 227.800781 158.753906 227.882812 157.761719 C 227.960938 156.765625 227.21875 155.894531 226.226562 155.816406 C 220.25 155.335938 213.472656 154.5 208.539062 151.929688 L 207.785156 151.519531 C 207.730469 151.488281 207.679688 151.460938 207.628906 151.429688 C 207.585938 151.410156 207.546875 151.386719 207.503906 151.367188 C 205.476562 150.277344 203.320312 149.175781 200.902344 148.007812 C 193.742188 144.542969 188.246094 143.058594 181.929688 142.878906 C 175.308594 142.695312 164.183594 146.875 148.851562 155.300781 C 135.738281 162.511719 129.132812 168.085938 128.070312 172.847656 C 127.671875 174.632812 128.023438 176.300781 129.121094 177.808594 C 130.101562 179.15625 131.511719 179.757812 133.363281 179.757812 C 137.96875 179.757812 145.304688 176.03125 155.535156 170.839844 L 156.980469 170.105469 " fill-opacity="1" fill-rule="nonzero"/><path fill="#000000" d="M 164.507812 159.941406 C 166.363281 158.992188 171.128906 160.621094 176.644531 162.507812 C 178.074219 162.992188 179.433594 163.476562 180.753906 163.949219 C 187.296875 166.273438 192.945312 168.28125 201.054688 168.925781 C 202.046875 169.007812 202.921875 168.265625 203 167.273438 C 203.078125 166.277344 202.335938 165.40625 201.34375 165.328125 C 193.703125 164.71875 188.265625 162.785156 181.964844 160.542969 C 180.628906 160.070312 179.253906 159.582031 177.816406 159.089844 C 171.003906 156.761719 166.078125 155.078125 162.859375 156.726562 C 161.535156 157.40625 160.617188 158.582031 160.125 160.214844 C 158 167.261719 171.191406 175.449219 180.574219 179.238281 C 183.621094 180.464844 186.355469 182.226562 188.996094 183.929688 C 192.988281 186.5 196.757812 188.929688 201.359375 189.535156 C 202.582031 189.695312 203.785156 189.765625 204.960938 189.765625 C 209.8125 189.765625 214.207031 188.558594 217.667969 187.417969 C 220.894531 186.359375 223.773438 185.542969 226.480469 184.929688 C 227.453125 184.710938 228.0625 183.742188 227.84375 182.769531 C 227.621094 181.796875 226.65625 181.1875 225.679688 181.40625 C 222.863281 182.046875 219.871094 182.890625 216.539062 183.988281 C 212.355469 185.367188 207.335938 186.675781 201.828125 185.953125 C 198.03125 185.453125 194.59375 183.238281 190.953125 180.894531 C 188.167969 179.097656 185.289062 177.242188 181.925781 175.886719 C 170.3125 171.203125 162.664062 164.300781 163.582031 161.253906 C 163.847656 160.378906 164.214844 160.089844 164.507812 159.941406 " fill-opacity="1" fill-rule="nonzero"/><path fill="#bd987a" d="M 147.125 218.386719 C 147.125 219.699219 146.058594 220.769531 144.742188 220.769531 L 138.914062 220.769531 C 137.601562 220.769531 136.53125 219.699219 136.53125 218.386719 L 136.53125 191.707031 C 136.53125 190.390625 137.601562 189.320312 138.914062 189.320312 L 144.742188 189.320312 C 146.058594 189.320312 147.125 190.390625 147.125 191.707031 Z M 144.742188 185.710938 L 138.914062 185.710938 C 135.609375 185.710938 132.917969 188.398438 132.917969 191.707031 L 132.917969 218.386719 C 132.917969 221.691406 135.609375 224.382812 138.914062 224.382812 L 144.742188 224.382812 C 148.046875 224.382812 150.738281 221.691406 150.738281 218.386719 L 150.738281 191.707031 C 150.738281 188.398438 148.046875 185.710938 144.742188 185.710938 " fill-opacity="1" fill-rule="nonzero"/><path fill="#bd987a" d="M 141.828125 193.9375 C 140.832031 193.9375 140.023438 194.746094 140.023438 195.742188 L 140.023438 196.339844 C 140.023438 197.335938 140.832031 198.144531 141.828125 198.144531 C 142.828125 198.144531 143.632812 197.335938 143.632812 196.339844 L 143.632812 195.742188 C 143.632812 194.746094 142.828125 193.9375 141.828125 193.9375 " fill-opacity="1" fill-rule="nonzero"/><path fill="#bd987a" d="M 238.484375 183.308594 C 238.484375 184.625 237.414062 185.691406 236.097656 185.691406 L 230.273438 185.691406 C 228.957031 185.691406 227.886719 184.625 227.886719 183.308594 L 227.886719 156.625 C 227.886719 155.3125 228.957031 154.242188 230.273438 154.242188 L 236.097656 154.242188 C 237.414062 154.242188 238.484375 155.3125 238.484375 156.625 Z M 236.097656 150.632812 L 230.273438 150.632812 C 226.964844 150.632812 224.273438 153.320312 224.273438 156.625 L 224.273438 183.308594 C 224.273438 186.613281 226.964844 189.304688 230.273438 189.304688 L 236.097656 189.304688 C 239.40625 189.304688 242.09375 186.613281 242.09375 183.308594 L 242.09375 156.625 C 242.09375 153.320312 239.40625 150.632812 236.097656 150.632812 " fill-opacity="1" fill-rule="nonzero"/><g fill="#000000" fill-opacity="1"><g transform="translate(136.316714, 140.161042)"><g><path d="M 1.515625 -1.453125 C 1.171875 -1.160156 0.789062 -0.800781 0.375 -0.375 L -0.0625 0.0625 L -4.453125 -9 C -4.640625 -9.394531 -4.757812 -9.613281 -4.8125 -9.65625 C -4.863281 -9.707031 -4.894531 -9.738281 -4.90625 -9.75 L -4.921875 -9.765625 C -4.671875 -10.003906 -4.414062 -10.257812 -4.15625 -10.53125 C -3.9375 -10.75 -3.675781 -11.019531 -3.375 -11.34375 L -3.359375 -11.328125 C -3.359375 -11.304688 -3.34375 -11.28125 -3.3125 -11.25 C -3.238281 -11.1875 -3 -11.0625 -2.59375 -10.875 L 6.59375 -6.6875 C 6.519531 -6.601562 6.4375 -6.515625 6.34375 -6.421875 C 6.34375 -6.421875 6.242188 -6.332031 6.046875 -6.15625 C 5.953125 -6.050781 5.867188 -5.960938 5.796875 -5.890625 L 4.953125 -5.03125 L 2.859375 -6.078125 L 0.390625 -3.578125 Z M 1.078125 -6.96875 L -2.296875 -8.65625 L -0.546875 -5.296875 Z M 1.078125 -6.96875 "/></g></g></g><g fill="#000000" fill-opacity="1"><g transform="translate(145.925226, 130.976038)"><g><path d="M -5.046875 -9.15625 C -4.523438 -9.644531 -3.953125 -10.109375 -3.328125 -10.546875 C -2.179688 -11.367188 -1.113281 -11.722656 -0.125 -11.609375 C 0.851562 -11.492188 1.722656 -10.898438 2.484375 -9.828125 C 3.171875 -8.867188 3.382812 -7.878906 3.125 -6.859375 C 2.875 -5.910156 2.265625 -5.09375 1.296875 -4.40625 C 1.191406 -4.320312 1.070312 -4.238281 0.9375 -4.15625 L 2.578125 -1.84375 L 0.96875 -0.6875 Z M -2.046875 -9.171875 C -2.171875 -9.078125 -2.296875 -8.984375 -2.421875 -8.890625 L -0.0625 -5.5625 C 0.0820312 -5.632812 0.253906 -5.738281 0.453125 -5.875 C 0.648438 -6.019531 0.820312 -6.207031 0.96875 -6.4375 C 1.125 -6.664062 1.222656 -6.90625 1.265625 -7.15625 C 1.347656 -7.6875 1.207031 -8.203125 0.84375 -8.703125 C 0.0507812 -9.828125 -0.910156 -9.984375 -2.046875 -9.171875 Z M -2.046875 -9.171875 "/></g></g></g><g fill="#000000" fill-opacity="1"><g transform="translate(155.896693, 124.29897)"><g><path d="M -3.46875 -9.859375 C -2.863281 -10.265625 -2.21875 -10.632812 -1.53125 -10.96875 C -0.257812 -11.582031 0.847656 -11.75 1.796875 -11.46875 C 2.753906 -11.1875 3.515625 -10.457031 4.078125 -9.28125 C 4.597656 -8.21875 4.644531 -7.207031 4.21875 -6.25 C 3.8125 -5.34375 3.078125 -4.632812 2.015625 -4.125 C 1.890625 -4.0625 1.757812 -4 1.625 -3.9375 L 2.859375 -1.375 L 1.0625 -0.515625 Z M -0.5 -9.390625 C -0.644531 -9.316406 -0.78125 -9.238281 -0.90625 -9.15625 L 0.875 -5.484375 C 1.03125 -5.535156 1.210938 -5.613281 1.421875 -5.71875 C 1.640625 -5.832031 1.84375 -5.988281 2.03125 -6.1875 C 2.21875 -6.382812 2.351562 -6.597656 2.4375 -6.828125 C 2.601562 -7.347656 2.550781 -7.882812 2.28125 -8.4375 C 1.675781 -9.675781 0.75 -9.992188 -0.5 -9.390625 Z M -0.5 -9.390625 "/></g></g></g><g fill="#000000" fill-opacity="1"><g transform="translate(166.923328, 119.408069)"><g/></g></g><g fill="#000000" fill-opacity="1"><g transform="translate(175.855425, 116.745958)"><g><path d="M 3.859375 -0.328125 C 3.015625 -0.210938 2.21875 -0.171875 1.46875 -0.203125 L 0.0625 -10.515625 C 0.738281 -10.691406 1.519531 -10.835938 2.40625 -10.953125 C 3.300781 -11.078125 4.128906 -11.066406 4.890625 -10.921875 C 5.648438 -10.773438 6.300781 -10.507812 6.84375 -10.125 C 7.957031 -9.351562 8.625 -8.15625 8.84375 -6.53125 C 9.09375 -4.707031 8.734375 -3.25 7.765625 -2.15625 C 6.898438 -1.175781 5.597656 -0.566406 3.859375 -0.328125 Z M 3.234375 -2.15625 C 3.585938 -2.144531 3.925781 -2.160156 4.25 -2.203125 C 4.582031 -2.242188 4.929688 -2.351562 5.296875 -2.53125 C 5.671875 -2.71875 5.976562 -2.972656 6.21875 -3.296875 C 6.75 -3.960938 6.941406 -4.851562 6.796875 -5.96875 C 6.546875 -7.8125 5.71875 -8.851562 4.3125 -9.09375 C 3.84375 -9.175781 3.320312 -9.175781 2.75 -9.09375 L 2.546875 -9.0625 C 2.460938 -9.050781 2.378906 -9.035156 2.296875 -9.015625 Z M 3.234375 -2.15625 "/></g></g></g><g fill="#000000" fill-opacity="1"><g transform="translate(190.239829, 115.126921)"><g><path d="M 2.265625 -1.0625 C 1.835938 -1.550781 1.507812 -2.117188 1.28125 -2.765625 C 1.050781 -3.410156 0.960938 -4.109375 1.015625 -4.859375 C 1.078125 -5.617188 1.257812 -6.320312 1.5625 -6.96875 C 1.875 -7.625 2.28125 -8.1875 2.78125 -8.65625 C 3.289062 -9.132812 3.890625 -9.5 4.578125 -9.75 C 5.265625 -10.007812 6.023438 -10.109375 6.859375 -10.046875 C 8.285156 -9.941406 9.453125 -9.40625 10.359375 -8.4375 C 11.328125 -7.394531 11.75 -6.054688 11.625 -4.421875 C 11.507812 -2.835938 10.875 -1.566406 9.71875 -0.609375 C 9.007812 -0.00390625 8.191406 0.382812 7.265625 0.5625 C 6.804688 0.644531 6.273438 0.660156 5.671875 0.609375 C 5.066406 0.566406 4.457031 0.398438 3.84375 0.109375 C 3.226562 -0.179688 2.703125 -0.570312 2.265625 -1.0625 Z M 3.1875 -4.796875 C 3.15625 -4.316406 3.203125 -3.867188 3.328125 -3.453125 C 3.453125 -3.046875 3.648438 -2.691406 3.921875 -2.390625 C 4.472656 -1.734375 5.226562 -1.367188 6.1875 -1.296875 C 7.09375 -1.222656 7.84375 -1.457031 8.4375 -2 C 9.03125 -2.550781 9.363281 -3.351562 9.4375 -4.40625 C 9.519531 -5.382812 9.320312 -6.226562 8.84375 -6.9375 C 8.320312 -7.664062 7.5625 -8.070312 6.5625 -8.15625 C 5.59375 -8.226562 4.796875 -7.9375 4.171875 -7.28125 C 3.585938 -6.632812 3.257812 -5.804688 3.1875 -4.796875 Z M 3.1875 -4.796875 "/></g></g></g><g fill="#000000" fill-opacity="1"><g transform="translate(205.945985, 116.78464)"><g><path d="M 1.34375 0.390625 C 1.425781 0.234375 1.492188 0.0507812 1.546875 -0.15625 L 4.296875 -9.515625 L 5.796875 -9.078125 L 7.921875 -1.703125 L 9.609375 -7.421875 C 9.679688 -7.691406 9.703125 -7.863281 9.671875 -7.9375 L 11.6875 -7.34375 C 11.601562 -7.15625 11.523438 -6.941406 11.453125 -6.703125 L 8.734375 2.5625 L 7.203125 2.109375 L 5.046875 -5.015625 L 3.296875 0.96875 Z M 1.34375 0.390625 "/></g></g></g><g fill="#000000" fill-opacity="1"><g transform="translate(219.72009, 121.279614)"><g><path d="M 1.828125 1.03125 C 1.453125 0.78125 1 0.519531 0.46875 0.25 L -0.0625 -0.03125 L 7.28125 -6.90625 C 7.613281 -7.21875 7.796875 -7.40625 7.828125 -7.46875 C 7.859375 -7.53125 7.875 -7.566406 7.875 -7.578125 L 7.890625 -7.59375 C 8.179688 -7.414062 8.492188 -7.242188 8.828125 -7.078125 C 9.109375 -6.929688 9.445312 -6.765625 9.84375 -6.578125 L 9.828125 -6.5625 C 9.804688 -6.539062 9.789062 -6.515625 9.78125 -6.484375 C 9.738281 -6.398438 9.6875 -6.128906 9.625 -5.671875 L 8.34375 4.328125 C 8.25 4.285156 8.140625 4.234375 8.015625 4.171875 C 8.015625 4.171875 7.894531 4.101562 7.65625 3.96875 C 7.539062 3.90625 7.4375 3.847656 7.34375 3.796875 L 6.265625 3.25 L 6.671875 0.9375 L 3.546875 -0.6875 Z M 6.984375 -1.015625 L 7.59375 -4.765625 L 4.921875 -2.09375 Z M 6.984375 -1.015625 "/></g></g></g><g fill="#000000" fill-opacity="1"><g transform="translate(231.327242, 127.700372)"><g><path d="M 11.984375 -3.046875 L 10.453125 -1.328125 L 10.40625 -1.359375 C 10.457031 -2.046875 10.171875 -2.738281 9.546875 -3.4375 C 9.359375 -3.664062 9.15625 -3.859375 8.9375 -4.015625 C 8.726562 -4.179688 8.535156 -4.304688 8.359375 -4.390625 C 8.179688 -4.472656 8.007812 -4.519531 7.84375 -4.53125 C 7.507812 -4.550781 7.253906 -4.445312 7.078125 -4.21875 C 6.828125 -3.90625 6.742188 -3.59375 6.828125 -3.28125 C 6.921875 -2.894531 7.222656 -2.445312 7.734375 -1.9375 C 8.242188 -1.425781 8.617188 -0.96875 8.859375 -0.5625 C 9.097656 -0.164062 9.253906 0.222656 9.328125 0.609375 C 9.441406 1.285156 9.226562 1.972656 8.6875 2.671875 C 7.988281 3.566406 7.109375 4 6.046875 3.96875 C 5.148438 3.914062 4.265625 3.550781 3.390625 2.875 C 2.671875 2.3125 2.0625 1.628906 1.5625 0.828125 C 1.414062 0.566406 1.300781 0.304688 1.21875 0.046875 L 2.875 -1.953125 L 2.921875 -1.9375 C 2.753906 -0.664062 3.25 0.414062 4.40625 1.3125 C 5.226562 1.957031 5.921875 2.1875 6.484375 2 C 6.691406 1.914062 6.859375 1.789062 6.984375 1.625 C 7.109375 1.46875 7.1875 1.3125 7.21875 1.15625 C 7.25 1.007812 7.234375 0.847656 7.171875 0.671875 C 7.054688 0.328125 6.738281 -0.0820312 6.21875 -0.5625 C 5.707031 -1.050781 5.328125 -1.503906 5.078125 -1.921875 C 4.835938 -2.347656 4.695312 -2.757812 4.65625 -3.15625 C 4.582031 -3.84375 4.816406 -4.535156 5.359375 -5.234375 C 5.929688 -5.960938 6.644531 -6.347656 7.5 -6.390625 C 8.375 -6.453125 9.25 -6.140625 10.125 -5.453125 C 11.007812 -4.765625 11.628906 -3.960938 11.984375 -3.046875 Z M 11.984375 -3.046875 "/></g></g></g><g fill="#000000" fill-opacity="1"><g transform="translate(241.535736, 136.263233)"><g><path d="M 8.65625 -5.921875 C 9 -5.535156 9.207031 -5.300781 9.28125 -5.21875 L 9.65625 -4.8125 C 9.84375 -4.613281 10.007812 -4.460938 10.15625 -4.359375 L 2.546875 2.734375 L 1.078125 1.15625 Z M 8.65625 -5.921875 "/></g></g></g></svg>