<?xml version="1.0" standalone="yes"?>
<svg xmlns="http://www.w3.org/2000/svg" width="500" height="500">
<path style="fill:#010101; stroke:none;" d="M0 0L0 500L500 500L500 0L0 0z"/>
<path style="fill:#5e5e5e; stroke:none;" d="M102 198L102 199L117 199C112.948 195.93 106.7 196.611 102 198z"/>
<path style="fill:#2b2b2b; stroke:none;" d="M131 234L132 234L132 198L146 198C124.628 189.032 131 221.822 131 234M163 234L164 234L164 198L178 198C156.628 189.032 163 221.822 163 234M209 197L209 198L224 198L209 197M257 197L258 198L257 197z"/>
<path style="fill:#5e5e5e; stroke:none;" d="M258 197L259 198L258 197z"/>
<path style="fill:#a5a5a5; stroke:none;" d="M259 197L259 198L267 198L259 197z"/>
<path style="fill:#5e5e5e; stroke:none;" d="M267 197L268 198L267 197z"/>
<path style="fill:#2b2b2b; stroke:none;" d="M268 197L269 198L268 197M287 197L287 198L300 198L287 197M312 197L312 198L321 198L321 234L322 208L320.972 198.603L312 197M336 197L337 198L336 197z"/>
<path style="fill:#5e5e5e; stroke:none;" d="M337 197L337 198L350 198L337 197z"/>
<path style="fill:#2b2b2b; stroke:none;" d="M372 197L373 198L372 197z"/>
<path style="fill:#5e5e5e; stroke:none;" d="M373.667 197.333L374.333 197.667L373.667 197.333z"/>
<path style="fill:#a5a5a5; stroke:none;" d="M375 197L375 198L381 198L375 197z"/>
<path style="fill:#5e5e5e; stroke:none;" d="M381.667 197.333L382.333 197.667L381.667 197.333z"/>
<path style="fill:#2b2b2b; stroke:none;" d="M394 234L395 234L395 198L405 198C388.308 190.996 394 224.61 394 234z"/>
<path style="fill:#fdfdfd; stroke:none;" d="M92 234L102 234L103 227L116 227L117 234L128 234C125.282 225.648 122.444 217.333 119.667 209C118.677 206.03 117.949 201.016 115.298 199.028C112.427 196.875 104.623 197.244 102.558 200.318C97.2096 208.281 93.3964 224.545 92 234M132 198L132 234L141 234L141 222C151.35 221.785 166.386 210.602 153.786 200.703C148.198 196.312 138.637 198 132 198z"/>
<path style="fill:#a5a5a5; stroke:none;" d="M149 198L150 199L149 198z"/>
<path style="fill:#5e5e5e; stroke:none;" d="M150 198L151 199L150 198z"/>
<path style="fill:#fdfdfd; stroke:none;" d="M164 198L164 234L173 234L173 222C183.35 221.785 198.386 210.602 185.786 200.703C180.198 196.312 170.637 198 164 198z"/>
<path style="fill:#a5a5a5; stroke:none;" d="M181 198L182 199L181 198z"/>
<path style="fill:#5e5e5e; stroke:none;" d="M182 198L183 199L182 198z"/>
<path style="fill:#fdfdfd; stroke:none;" d="M209 198L209 234C216.395 234 225.388 235.071 231.985 230.992C241.516 225.098 242.75 207.314 232.957 201.005C226.159 196.626 216.678 198 209 198z"/>
<path style="fill:#a5a5a5; stroke:none;" d="M226.667 198.333L227.333 198.667L226.667 198.333z"/>
<path style="fill:#5e5e5e; stroke:none;" d="M228 198L229 199L228 198M254 198L255 199L254 198z"/>
<path style="fill:#a5a5a5; stroke:none;" d="M255 198L256 199L255 198z"/>
<path style="fill:#fdfdfd; stroke:none;" d="M256 198.573C234.827 204.649 246.293 239.957 268.999 233.362C281.152 229.832 283.627 210.967 275.606 202.214C271.146 197.348 262.072 196.83 256 198.573z"/>
<path style="fill:#a5a5a5; stroke:none;" d="M270 198L271 199L270 198z"/>
<path style="fill:#2b2b2b; stroke:none;" d="M271 198L272 199L271 198z"/>
<path style="fill:#5e5e5e; stroke:none;" d="M286 198L286 234L287 234C287 223.613 290.011 207.56 286 198z"/>
<path style="fill:#fdfdfd; stroke:none;" d="M287 198L287 234L295 234L295 209L296 209C297.665 214.768 303.776 230.756 309.39 233.397C312.576 234.895 317.552 234 321 234L321 198L313 198L313 223C304.581 210.233 304.206 198 287 198z"/>
<path style="fill:#a5a5a5; stroke:none;" d="M299 198L300 199L299 198M312 198L312 220L313 220L312 198M336 198L337 199L336 198z"/>
<path style="fill:#fdfdfd; stroke:none;" d="M325 234L336 234L337 227L350 227L351 234L361 234L350 198L337.563 199.028L333.333 209L325 234z"/>
<path style="fill:#2b2b2b; stroke:none;" d="M350 198L351 199L350 198z"/>
<path style="fill:#5e5e5e; stroke:none;" d="M370 198L371 199L370 198z"/>
<path style="fill:#a5a5a5; stroke:none;" d="M371 198L372 199L371 198z"/>
<path style="fill:#fdfdfd; stroke:none;" d="M364 224C364.047 237.425 385.068 238.054 388.424 225.996C389.872 220.791 387.405 216.223 382.981 213.529C380.928 212.277 374.991 210.606 375.631 207.275C376.401 203.268 383.852 206.319 386 207L389 200C380.162 197.199 359.85 196.585 365.603 211.996C367.045 215.858 388.008 231.254 369.025 225.496C367.343 224.986 365.698 224.454 364 224z"/>
<path style="fill:#a5a5a5; stroke:none;" d="M384.667 198.333L385.333 198.667L384.667 198.333z"/>
<path style="fill:#2b2b2b; stroke:none;" d="M386 198L387 199L386 198z"/>
<path style="fill:#fdfdfd; stroke:none;" d="M395 198L395 234L404 234L404 198L395 198z"/>
<path style="fill:#a5a5a5; stroke:none;" d="M404 198L404 234L405 234C405 223.613 408.011 207.56 404 198M102 199L103 200L102 199M116 199L117 200L116 199M152 199L153 200L152 199z"/>
<path style="fill:#2b2b2b; stroke:none;" d="M153 199L154 200L153 199z"/>
<path style="fill:#a5a5a5; stroke:none;" d="M184 199L185 200L184 199z"/>
<path style="fill:#2b2b2b; stroke:none;" d="M185 199L186 200L185 199z"/>
<path style="fill:#a5a5a5; stroke:none;" d="M230 199L231 200L230 199z"/>
<path style="fill:#2b2b2b; stroke:none;" d="M231 199L232 200L231 199z"/>
<path style="fill:#5e5e5e; stroke:none;" d="M252 199L253 200L252 199z"/>
<path style="fill:#a5a5a5; stroke:none;" d="M272 199L273 200L272 199z"/>
<path style="fill:#5e5e5e; stroke:none;" d="M300 199L301 200L300 199M350 199L351 200L350 199M368 199L369 200L368 199z"/>
<path style="fill:#a5a5a5; stroke:none;" d="M387 199L388 200L387 199z"/>
<path style="fill:#5e5e5e; stroke:none;" d="M388 199L389 200L388 199M154 200L155 201L154 200M186 200L187 201L186 200z"/>
<path style="fill:#a5a5a5; stroke:none;" d="M232 200L233 201L232 200z"/>
<path style="fill:#2b2b2b; stroke:none;" d="M233 200L234 201L233 200z"/>
<path style="fill:#a5a5a5; stroke:none;" d="M251 200L252 201L251 200z"/>
<path style="fill:#5e5e5e; stroke:none;" d="M274 200L275 201L274 200z"/>
<path style="fill:#2b2b2b; stroke:none;" d="M335 200L336 201L335 200z"/>
<path style="fill:#a5a5a5; stroke:none;" d="M350 200L351 201L350 200M367 200L368 201L367 200z"/>
<path style="fill:#2b2b2b; stroke:none;" d="M389 200L390 201L389 200M101 201L102 202L101 201z"/>
<path style="fill:#5e5e5e; stroke:none;" d="M117 201L118 202L117 201M155 201L156 202L155 201M187 201L188 202L187 201M234 201L235 202L234 201z"/>
<path style="fill:#2b2b2b; stroke:none;" d="M249 201L250 202L249 201z"/>
<path style="fill:#a5a5a5; stroke:none;" d="M250 201L251 202L250 201z"/>
<path style="fill:#5e5e5e; stroke:none;" d="M275 201L276 202L275 201M301 201L302 202L301 201M335 201L336 202L335 201z"/>
<path style="fill:#2b2b2b; stroke:none;" d="M351 201L352 202L351 201z"/>
<path style="fill:#a5a5a5; stroke:none;" d="M366 201L367 202L366 201M388 201L389 202L388 201M101 202L102 203L101 202M117 202L118 203L117 202z"/>
<path style="fill:#5e5e5e; stroke:none;" d="M156 202L157 203L156 202M188 202L189 203L188 202M235 202L236 203L235 202z"/>
<path style="fill:#a5a5a5; stroke:none;" d="M249 202L250 203L249 202z"/>
<path style="fill:#5e5e5e; stroke:none;" d="M276 202L277 203L276 202z"/>
<path style="fill:#a5a5a5; stroke:none;" d="M335 202L336 203L335 202z"/>
<path style="fill:#5e5e5e; stroke:none;" d="M351 202L352 203L351 202M365 202L366 203L365 202M388 202L389 203L388 202z"/>
<path style="fill:#a5a5a5; stroke:none;" d="M156 203L157 204L156 203M188 203L189 204L188 203z"/>
<path style="fill:#5e5e5e; stroke:none;" d="M236 203L237 204L236 203z"/>
<path style="fill:#a5a5a5; stroke:none;" d="M248 203L249 204L248 203z"/>
<path style="fill:#2b2b2b; stroke:none;" d="M277 203L278 204L277 203z"/>
<path style="fill:#5e5e5e; stroke:none;" d="M302 203L303 204L302 203z"/>
<path style="fill:#2b2b2b; stroke:none;" d="M334 203L335 204L334 203z"/>
<path style="fill:#a5a5a5; stroke:none;" d="M351 203L352 204L351 203z"/>
<path style="fill:#2b2b2b; stroke:none;" d="M100 204L101 205L100 204z"/>
<path style="fill:#a5a5a5; stroke:none;" d="M109 204L110 205L109 204z"/>
<path style="fill:#5e5e5e; stroke:none;" d="M118 204L119 205L118 204M157 204L158 205L157 204M189 204L190 205L189 204z"/>
<path style="fill:#2b2b2b; stroke:none;" d="M237 204L238 205L237 204z"/>
<path style="fill:#5e5e5e; stroke:none;" d="M247 204L248 205L247 204z"/>
<path style="fill:#a5a5a5; stroke:none;" d="M277 204L278 205L277 204z"/>
<path style="fill:#5e5e5e; stroke:none;" d="M334 204L335 205L334 204z"/>
<path style="fill:#a5a5a5; stroke:none;" d="M343 204L344 205L343 204z"/>
<path style="fill:#2b2b2b; stroke:none;" d="M352 204L353 205L352 204z"/>
<path style="fill:#5e5e5e; stroke:none;" d="M364 204L365 205L364 204z"/>
<path style="fill:#a5a5a5; stroke:none;" d="M387 204L388 205L387 204M100 205L101 206L100 205z"/>
<path style="fill:#5e5e5e; stroke:none;" d="M109 205L110 206L109 205z"/>
<path style="fill:#a5a5a5; stroke:none;" d="M118 205L119 206L118 205M141 214L142 214L145 206C140.412 204.969 141.011 210.775 141 214M157 205L158 206L157 205M173 214L174 214L177 206C172.412 204.969 173.011 210.775 173 214M189 205L190 206L189 205M219 205L219 206L222 206L219 205M237 205L238 206L237 205M260 205L261 206L260 205z"/>
<path style="fill:#5e5e5e; stroke:none;" d="M261 205L261 206L264 206L261 205z"/>
<path style="fill:#a5a5a5; stroke:none;" d="M264 205L265 206L264 205z"/>
<path style="fill:#2b2b2b; stroke:none;" d="M278 205L279 206L278 205z"/>
<path style="fill:#5e5e5e; stroke:none;" d="M303 205L304 206L303 205z"/>
<path style="fill:#a5a5a5; stroke:none;" d="M334 205L335 206L334 205z"/>
<path style="fill:#5e5e5e; stroke:none;" d="M343 205L344 206L343 205M352 205L353 206L352 205z"/>
<path style="fill:#a5a5a5; stroke:none;" d="M364 205L364 211L365 211L364 205M375 205L376 206L375 205z"/>
<path style="fill:#5e5e5e; stroke:none;" d="M376 205L377 206L376 205z"/>
<path style="fill:#2b2b2b; stroke:none;" d="M377 205L378 206L377 205z"/>
<path style="fill:#5e5e5e; stroke:none;" d="M378.667 205.333L379.333 205.667L378.667 205.333z"/>
<path style="fill:#a5a5a5; stroke:none;" d="M380.667 205.333L381.333 205.667L380.667 205.333z"/>
<path style="fill:#2b2b2b; stroke:none;" d="M387 205L388 206L387 205z"/>
<path style="fill:#010101; stroke:none;" d="M109 206L106 219L113 219L109 206z"/>
<path style="fill:#a5a5a5; stroke:none;" d="M110.333 206.667L110.667 207.333L110.333 206.667z"/>
<path style="fill:#010101; stroke:none;" d="M142 206L142 214C148.339 212.647 148.65 207.061 142 206z"/>
<path style="fill:#5e5e5e; stroke:none;" d="M146 206L147 207L146 206z"/>
<path style="fill:#010101; stroke:none;" d="M174 206L174 214C180.339 212.647 180.65 207.061 174 206z"/>
<path style="fill:#5e5e5e; stroke:none;" d="M178 206L179 207L178 206z"/>
<path style="fill:#010101; stroke:none;" d="M219 206L219 226C231.929 224.212 232.646 206.748 219 206z"/>
<path style="fill:#2b2b2b; stroke:none;" d="M224 206L225 207L224 206z"/>
<path style="fill:#a5a5a5; stroke:none;" d="M225 206L226 207L225 206z"/>
<path style="fill:#2b2b2b; stroke:none;" d="M238 206L239 207L238 206z"/>
<path style="fill:#5e5e5e; stroke:none;" d="M246 206L247 207L246 206z"/>
<path style="fill:#a5a5a5; stroke:none;" d="M258 206L257 208L258 206z"/>
<path style="fill:#010101; stroke:none;" d="M259.279 207.029C252.454 211.274 256.439 230.311 265.772 224.816C272.68 220.749 268.896 201.046 259.279 207.029z"/>
<path style="fill:#5e5e5e; stroke:none;" d="M266 206L267 207L266 206z"/>
<path style="fill:#a5a5a5; stroke:none;" d="M278 206L279 207L278 206z"/>
<path style="fill:#2b2b2b; stroke:none;" d="M333 206L334 207L333 206z"/>
<path style="fill:#010101; stroke:none;" d="M343 206L340 219L347 219L343 206z"/>
<path style="fill:#a5a5a5; stroke:none;" d="M352 206L353 207L352 206z"/>
<path style="fill:#5e5e5e; stroke:none;" d="M374 206L375 207L374 206M383 206L384 207L383 206z"/>
<path style="fill:#a5a5a5; stroke:none;" d="M384 206L385 207L384 206M386 206L387 207L386 206z"/>
<path style="fill:#2b2b2b; stroke:none;" d="M99 207L100 208L99 207z"/>
<path style="fill:#5e5e5e; stroke:none;" d="M119 207L120 208L119 207M147 207L148 208L147 207M179 207L180 208L179 207z"/>
<path style="fill:#2b2b2b; stroke:none;" d="M226 207L227 208L226 207z"/>
<path style="fill:#a5a5a5; stroke:none;" d="M238 207L239 208L238 207M246 207L247 208L246 207z"/>
<path style="fill:#5e5e5e; stroke:none;" d="M267 207L268 208L267 207z"/>
<path style="fill:#a5a5a5; stroke:none;" d="M304 207L305 208L304 207z"/>
<path style="fill:#5e5e5e; stroke:none;" d="M333 207L334 208L333 207z"/>
<path style="fill:#a5a5a5; stroke:none;" d="M342 207L343 208L342 207M344.333 207.667L344.667 208.333L344.333 207.667z"/>
<path style="fill:#2b2b2b; stroke:none;" d="M353 207L354 208L353 207M385.667 207.333L386.333 207.667L385.667 207.333z"/>
<path style="fill:#a5a5a5; stroke:none;" d="M99 208L100 209L99 208M108 208L109 209L108 208z"/>
<path style="fill:#5e5e5e; stroke:none;" d="M110 208L111 209L110 208z"/>
<path style="fill:#a5a5a5; stroke:none;" d="M119 208L120 209L119 208z"/>
<path style="fill:#2b2b2b; stroke:none;" d="M158 208L158 211L159 211L158 208M190 208L190 211L191 211L190 208M227 208L228 209L227 208z"/>
<path style="fill:#a5a5a5; stroke:none;" d="M268 208L269 209L268 208z"/>
<path style="fill:#5e5e5e; stroke:none;" d="M279 208L280 209L279 208z"/>
<path style="fill:#2b2b2b; stroke:none;" d="M305 208L306 209L305 208z"/>
<path style="fill:#a5a5a5; stroke:none;" d="M333 208L334 209L333 208z"/>
<path style="fill:#5e5e5e; stroke:none;" d="M342 208L343 209L342 208M353 208L354 209L353 208M374 208L375 209L374 208M108 209L109 210L108 209z"/>
<path style="fill:#a5a5a5; stroke:none;" d="M148 209L149 210L148 209M180 209L181 210L180 209z"/>
<path style="fill:#5e5e5e; stroke:none;" d="M228 209L229 210L228 209z"/>
<path style="fill:#2b2b2b; stroke:none;" d="M239 209L240 210L239 209z"/>
<path style="fill:#5e5e5e; stroke:none;" d="M245.333 209.667L245.667 210.333L245.333 209.667M256 209L257 210L256 209z"/>
<path style="fill:#2b2b2b; stroke:none;" d="M268 209L269 210L268 209z"/>
<path style="fill:#a5a5a5; stroke:none;" d="M279.333 209.667L279.667 210.333L279.333 209.667z"/>
<path style="fill:#5e5e5e; stroke:none;" d="M295 209L296 210L295 209z"/>
<path style="fill:#a5a5a5; stroke:none;" d="M305 209L306 210L305 209z"/>
<path style="fill:#2b2b2b; stroke:none;" d="M332 209L333 210L332 209M342 209L343 210L342 209z"/>
<path style="fill:#5e5e5e; stroke:none;" d="M344 209L345 210L344 209z"/>
<path style="fill:#a5a5a5; stroke:none;" d="M353 209L354 210L353 209z"/>
<path style="fill:#5e5e5e; stroke:none;" d="M375 209L376 210L375 209z"/>
<path style="fill:#2b2b2b; stroke:none;" d="M98 210L99 211L98 210M108 210L109 211L108 210z"/>
<path style="fill:#a5a5a5; stroke:none;" d="M111.333 210.667L111.667 211.333L111.333 210.667z"/>
<path style="fill:#5e5e5e; stroke:none;" d="M120 210L121 211L120 210z"/>
<path style="fill:#2b2b2b; stroke:none;" d="M228 210L229 211L228 210z"/>
<path style="fill:#5e5e5e; stroke:none;" d="M239 210L240 211L239 210z"/>
<path style="fill:#2b2b2b; stroke:none;" d="M256 210L257 211L256 210z"/>
<path style="fill:#a5a5a5; stroke:none;" d="M269.333 210.667L269.667 211.333L269.333 210.667z"/>
<path style="fill:#010101; stroke:none;" d="M295.333 210.667L295.667 211.333L295.333 210.667z"/>
<path style="fill:#2b2b2b; stroke:none;" d="M306 210L307 211L306 210z"/>
<path style="fill:#5e5e5e; stroke:none;" d="M332 210L333 211L332 210z"/>
<path style="fill:#2b2b2b; stroke:none;" d="M354 210L355 211L354 210z"/>
<path style="fill:#a5a5a5; stroke:none;" d="M376 210L377 211L376 210z"/>
<path style="fill:#5e5e5e; stroke:none;" d="M377 210L378 211L377 210M98 211L99 212L98 211z"/>
<path style="fill:#a5a5a5; stroke:none;" d="M120 211L121 212L120 211z"/>
<path style="fill:#2b2b2b; stroke:none;" d="M147 211L148 212L147 211M179 211L180 212L179 211z"/>
<path style="fill:#a5a5a5; stroke:none;" d="M229.333 211.667L229.667 212.333L229.333 211.667M239.333 211.667L239.667 212.333L239.333 211.667M245.333 211.667L245.667 212.333L245.333 211.667M255 211L255 214L256 214L255 211z"/>
<path style="fill:#5e5e5e; stroke:none;" d="M296 211L297 212L296 211z"/>
<path style="fill:#a5a5a5; stroke:none;" d="M306 211L307 212L306 211M332 211L333 212L332 211M341 211L342 212L341 211M345.333 211.667L345.667 212.333L345.333 211.667z"/>
<path style="fill:#5e5e5e; stroke:none;" d="M354 211L355 212L354 211M364 211L365 212L364 211z"/>
<path style="fill:#a5a5a5; stroke:none;" d="M378 211L379 212L378 211z"/>
<path style="fill:#5e5e5e; stroke:none;" d="M379 211L380 212L379 211z"/>
<path style="fill:#a5a5a5; stroke:none;" d="M98 212L99 213L98 212M107 212L108 213L107 212z"/>
<path style="fill:#5e5e5e; stroke:none;" d="M111 212L112 213L111 212z"/>
<path style="fill:#a5a5a5; stroke:none;" d="M147 212L148 213L147 212M179 212L180 213L179 212z"/>
<path style="fill:#5e5e5e; stroke:none;" d="M269 212L270 213L269 212z"/>
<path style="fill:#2b2b2b; stroke:none;" d="M280 212L280 215L281 215L280 212M295.333 212.667L295.667 213.333L295.333 212.667M307 212L308 213L307 212z"/>
<path style="fill:#5e5e5e; stroke:none;" d="M341 212L342 213L341 212z"/>
<path style="fill:#a5a5a5; stroke:none;" d="M354 212L355 213L354 212z"/>
<path style="fill:#5e5e5e; stroke:none;" d="M381 212L382 213L381 212z"/>
<path style="fill:#2b2b2b; stroke:none;" d="M97 213L98 214L97 213z"/>
<path style="fill:#5e5e5e; stroke:none;" d="M107 213L108 214L107 213M121 213L122 214L121 213M145 213L146 214L145 213z"/>
<path style="fill:#a5a5a5; stroke:none;" d="M157 213L158 214L157 213z"/>
<path style="fill:#5e5e5e; stroke:none;" d="M177 213L178 214L177 213z"/>
<path style="fill:#a5a5a5; stroke:none;" d="M189 213L190 214L189 213z"/>
<path style="fill:#5e5e5e; stroke:none;" d="M229 213L229 218L230 218L229 213z"/>
<path style="fill:#2b2b2b; stroke:none;" d="M269 213L269 219L270 219L269 213z"/>
<path style="fill:#5e5e5e; stroke:none;" d="M297 213L298 214L297 213z"/>
<path style="fill:#a5a5a5; stroke:none;" d="M307 213L308 214L307 213z"/>
<path style="fill:#5e5e5e; stroke:none;" d="M331 213L332 214L331 213z"/>
<path style="fill:#2b2b2b; stroke:none;" d="M341 213L342 214L341 213M345 213L346 214L345 213M355 213L356 214L355 213z"/>
<path style="fill:#5e5e5e; stroke:none;" d="M365 213L366 214L365 213M383 213L384 214L383 213M97 214L98 215L97 214z"/>
<path style="fill:#2b2b2b; stroke:none;" d="M107 214L108 215L107 214z"/>
<path style="fill:#a5a5a5; stroke:none;" d="M112 214L113 215L112 214M121 214L122 215L121 214z"/>
<path style="fill:#5e5e5e; stroke:none;" d="M157 214L158 215L157 214M189 214L190 215L189 214M255 214L255 218L256 218L255 214M295 214L295 234L296 234L295 214z"/>
<path style="fill:#2b2b2b; stroke:none;" d="M308 214L309 215L308 214z"/>
<path style="fill:#a5a5a5; stroke:none;" d="M331 214L332 215L331 214z"/>
<path style="fill:#5e5e5e; stroke:none;" d="M355 214L356 215L355 214z"/>
<path style="fill:#a5a5a5; stroke:none;" d="M366 214L367 215L366 214M384 214L385 215L384 214z"/>
<path style="fill:#2b2b2b; stroke:none;" d="M385 214L386 215L385 214z"/>
<path style="fill:#a5a5a5; stroke:none;" d="M97 215L98 216L97 215z"/>
<path style="fill:#5e5e5e; stroke:none;" d="M112 215L113 216L112 215M280.333 215.667L280.667 216.333L280.333 215.667M298 215L299 216L298 215z"/>
<path style="fill:#a5a5a5; stroke:none;" d="M308 215L309 216L308 215M340 215L341 216L340 215M346 215L347 216L346 215M355 215L356 216L355 215M367 215L368 216L367 215z"/>
<path style="fill:#2b2b2b; stroke:none;" d="M386 215L387 216L386 215M96 216L97 217L96 216z"/>
<path style="fill:#a5a5a5; stroke:none;" d="M106 216L107 217L106 216z"/>
<path style="fill:#2b2b2b; stroke:none;" d="M112 216L113 217L112 216z"/>
<path style="fill:#5e5e5e; stroke:none;" d="M122 216L123 217L122 216M156 216L157 217L156 216M188 216L189 217L188 216z"/>
<path style="fill:#2b2b2b; stroke:none;" d="M309 216L310 217L309 216z"/>
<path style="fill:#5e5e5e; stroke:none;" d="M330 216L331 217L330 216M340 216L341 217L340 216M346 216L347 217L346 216z"/>
<path style="fill:#a5a5a5; stroke:none;" d="M368 216L369 217L368 216z"/>
<path style="fill:#2b2b2b; stroke:none;" d="M387 216L388 217L387 216z"/>
<path style="fill:#5e5e5e; stroke:none;" d="M96 217L97 218L96 217M106 217L107 218L106 217z"/>
<path style="fill:#a5a5a5; stroke:none;" d="M122 217L123 218L122 217M155 217L156 218L155 217M187 217L188 218L187 217M239 217L239 220L240 220L239 217z"/>
<path style="fill:#2b2b2b; stroke:none;" d="M280.333 217.667L280.667 218.333L280.333 217.667z"/>
<path style="fill:#5e5e5e; stroke:none;" d="M299 217L300 218L299 217z"/>
<path style="fill:#a5a5a5; stroke:none;" d="M309 217L310 218L309 217M330 217L331 218L330 217z"/>
<path style="fill:#2b2b2b; stroke:none;" d="M340 217L341 218L340 217M346 217L347 218L346 217z"/>
<path style="fill:#5e5e5e; stroke:none;" d="M356 217L357 218L356 217M369 217L370 218L369 217z"/>
<path style="fill:#a5a5a5; stroke:none;" d="M96 218L97 219L96 218M113 218L114 219L113 218M154 218L155 219L154 218M186 218L187 219L186 218M229.333 218.667L229.667 219.333L229.333 218.667M255.333 218.667L255.667 219.333L255.333 218.667M300 218L301 219L300 218z"/>
<path style="fill:#5e5e5e; stroke:none;" d="M310 218L311 219L310 218z"/>
<path style="fill:#a5a5a5; stroke:none;" d="M339 218L340 219L339 218M356 218L357 219L356 218z"/>
<path style="fill:#5e5e5e; stroke:none;" d="M371 218L372 219L371 218M388 218L389 219L388 218z"/>
<path style="fill:#2b2b2b; stroke:none;" d="M95 219L96 220L95 219z"/>
<path style="fill:#5e5e5e; stroke:none;" d="M123 219L124 220L123 219z"/>
<path style="fill:#a5a5a5; stroke:none;" d="M153 219L154 220L153 219M185 219L186 220L185 219M245.333 219.667L245.667 220.333L245.333 219.667z"/>
<path style="fill:#5e5e5e; stroke:none;" d="M269 219L270 220L269 219M300 219L301 220L300 219z"/>
<path style="fill:#a5a5a5; stroke:none;" d="M310 219L311 220L310 219z"/>
<path style="fill:#5e5e5e; stroke:none;" d="M329 219L330 220L329 219M373 219L374 220L373 219z"/>
<path style="fill:#a5a5a5; stroke:none;" d="M388 219L389 220L388 219z"/>
<path style="fill:#5e5e5e; stroke:none;" d="M95 220L96 221L95 220z"/>
<path style="fill:#a5a5a5; stroke:none;" d="M123 220L124 221L123 220M151 220L152 221L151 220z"/>
<path style="fill:#2b2b2b; stroke:none;" d="M152 220L153 221L152 220z"/>
<path style="fill:#a5a5a5; stroke:none;" d="M183 220L184 221L183 220z"/>
<path style="fill:#2b2b2b; stroke:none;" d="M184 220L185 221L184 220z"/>
<path style="fill:#5e5e5e; stroke:none;" d="M239 220L240 221L239 220z"/>
<path style="fill:#a5a5a5; stroke:none;" d="M269 220L270 221L269 220M301 220L302 221L301 220z"/>
<path style="fill:#5e5e5e; stroke:none;" d="M311 220L313 222L313 220L311 220z"/>
<path style="fill:#a5a5a5; stroke:none;" d="M329 220L330 221L329 220z"/>
<path style="fill:#5e5e5e; stroke:none;" d="M357 220L358 221L357 220M375 220L376 221L375 220z"/>
<path style="fill:#a5a5a5; stroke:none;" d="M376 220L377 221L376 220M95 221L96 222L95 221M147.667 221.333L148.333 221.667L147.667 221.333z"/>
<path style="fill:#5e5e5e; stroke:none;" d="M149 221L150 222L149 221z"/>
<path style="fill:#2b2b2b; stroke:none;" d="M150 221L151 222L150 221z"/>
<path style="fill:#a5a5a5; stroke:none;" d="M179.667 221.333L180.333 221.667L179.667 221.333z"/>
<path style="fill:#5e5e5e; stroke:none;" d="M181 221L182 222L181 221z"/>
<path style="fill:#2b2b2b; stroke:none;" d="M182 221L183 222L182 221z"/>
<path style="fill:#5e5e5e; stroke:none;" d="M228 221L229 222L228 221z"/>
<path style="fill:#2b2b2b; stroke:none;" d="M239 221L240 222L239 221z"/>
<path style="fill:#5e5e5e; stroke:none;" d="M245 221L246 222L245 221z"/>
<path style="fill:#2b2b2b; stroke:none;" d="M256 221L257 222L256 221z"/>
<path style="fill:#a5a5a5; stroke:none;" d="M279.333 221.667L279.667 222.333L279.333 221.667z"/>
<path style="fill:#5e5e5e; stroke:none;" d="M301 221L302 222L301 221z"/>
<path style="fill:#a5a5a5; stroke:none;" d="M357 221L358 222L357 221z"/>
<path style="fill:#5e5e5e; stroke:none;" d="M377 221L378 222L377 221z"/>
<path style="fill:#2b2b2b; stroke:none;" d="M389 221L390 222L389 221z"/>
<path style="fill:#5e5e5e; stroke:none;" d="M124 222L125 223L124 222z"/>
<path style="fill:#a5a5a5; stroke:none;" d="M141 222L141 234L142 234L141 222M173 222L173 234L174 234L173 222z"/>
<path style="fill:#2b2b2b; stroke:none;" d="M245 222L246 223L245 222z"/>
<path style="fill:#a5a5a5; stroke:none;" d="M256 222L257 223L256 222z"/>
<path style="fill:#2b2b2b; stroke:none;" d="M268 222L269 223L268 222z"/>
<path style="fill:#a5a5a5; stroke:none;" d="M302 222L303 223L302 222M312 222L313 223L312 222z"/>
<path style="fill:#5e5e5e; stroke:none;" d="M328 222L329 223L328 222z"/>
<path style="fill:#2b2b2b; stroke:none;" d="M378 222L379 223L378 222z"/>
<path style="fill:#5e5e5e; stroke:none;" d="M389.333 222.667L389.667 223.333L389.333 222.667M94 223L95 224L94 223z"/>
<path style="fill:#a5a5a5; stroke:none;" d="M124 223L125 224L124 223M227 223L228 224L227 223M238 223L239 224L238 223z"/>
<path style="fill:#2b2b2b; stroke:none;" d="M257 223L258 224L257 223z"/>
<path style="fill:#a5a5a5; stroke:none;" d="M268 223L269 224L268 223z"/>
<path style="fill:#5e5e5e; stroke:none;" d="M279 223L280 224L279 223z"/>
<path style="fill:#2b2b2b; stroke:none;" d="M302 223L303 224L302 223z"/>
<path style="fill:#a5a5a5; stroke:none;" d="M328 223L329 224L328 223z"/>
<path style="fill:#5e5e5e; stroke:none;" d="M358 223L359 224L358 223M364 223L365 224L364 223z"/>
<path style="fill:#a5a5a5; stroke:none;" d="M379.333 223.667L379.667 224.333L379.333 223.667M94 224L95 225L94 224M226 224L227 225L226 224z"/>
<path style="fill:#2b2b2b; stroke:none;" d="M238 224L239 225L238 224z"/>
<path style="fill:#a5a5a5; stroke:none;" d="M246 224L247 225L246 224z"/>
<path style="fill:#2b2b2b; stroke:none;" d="M258 224L259 225L258 224z"/>
<path style="fill:#a5a5a5; stroke:none;" d="M267 224L268 225L267 224M303 224L304 225L303 224M358 224L359 225L358 224z"/>
<path style="fill:#5e5e5e; stroke:none;" d="M366 224L367 225L366 224z"/>
<path style="fill:#2b2b2b; stroke:none;" d="M389 224L390 225L389 224z"/>
<path style="fill:#5e5e5e; stroke:none;" d="M125 225L126 226L125 225z"/>
<path style="fill:#2b2b2b; stroke:none;" d="M222 225L223 226L222 225z"/>
<path style="fill:#5e5e5e; stroke:none;" d="M223 225L224 226L223 225z"/>
<path style="fill:#a5a5a5; stroke:none;" d="M224 225L225 226L224 225M237 225L238 226L237 225z"/>
<path style="fill:#2b2b2b; stroke:none;" d="M246 225L247 226L246 225z"/>
<path style="fill:#5e5e5e; stroke:none;" d="M259 225L260 226L259 225z"/>
<path style="fill:#2b2b2b; stroke:none;" d="M265 225L266 226L265 225z"/>
<path style="fill:#a5a5a5; stroke:none;" d="M266 225L267 226L266 225M278 225L279 226L278 225z"/>
<path style="fill:#2b2b2b; stroke:none;" d="M303 225L304 226L303 225z"/>
<path style="fill:#5e5e5e; stroke:none;" d="M327 225L328 226L327 225z"/>
<path style="fill:#a5a5a5; stroke:none;" d="M368 225L369 226L368 225z"/>
<path style="fill:#5e5e5e; stroke:none;" d="M369 225L370 226L369 225z"/>
<path style="fill:#2b2b2b; stroke:none;" d="M370 225L371 226L370 225z"/>
<path style="fill:#5e5e5e; stroke:none;" d="M378 225L379 226L378 225M93 226L94 227L93 226z"/>
<path style="fill:#a5a5a5; stroke:none;" d="M125 226L126 227L125 226z"/>
<path style="fill:#2b2b2b; stroke:none;" d="M237 226L238 227L237 226z"/>
<path style="fill:#a5a5a5; stroke:none;" d="M247 226L248 227L247 226M261 226L261 227L264 227L261 226z"/>
<path style="fill:#2b2b2b; stroke:none;" d="M278 226L279 227L278 226z"/>
<path style="fill:#a5a5a5; stroke:none;" d="M304 226L305 227L304 226M327 226L328 227L327 226z"/>
<path style="fill:#5e5e5e; stroke:none;" d="M359 226L360 227L359 226z"/>
<path style="fill:#a5a5a5; stroke:none;" d="M372 226L372 227L378 227L372 226M388 226L389 227L388 226M93 227L94 228L93 227M103.333 227.667L103.667 228.333L103.333 227.667z"/>
<path style="fill:#5e5e5e; stroke:none;" d="M104 227L104 228L115 228L104 227z"/>
<path style="fill:#a5a5a5; stroke:none;" d="M115 227L116 228L115 227z"/>
<path style="fill:#5e5e5e; stroke:none;" d="M236 227L237 228L236 227z"/>
<path style="fill:#2b2b2b; stroke:none;" d="M247 227L248 228L247 227z"/>
<path style="fill:#a5a5a5; stroke:none;" d="M277 227L278 228L277 227z"/>
<path style="fill:#2b2b2b; stroke:none;" d="M304 227L305 228L304 227z"/>
<path style="fill:#a5a5a5; stroke:none;" d="M337 227L338 228L337 227z"/>
<path style="fill:#5e5e5e; stroke:none;" d="M338 227L338 228L350 229L338 227z"/>
<path style="fill:#a5a5a5; stroke:none;" d="M349 227L350 228L349 227M359 227L360 228L359 227z"/>
<path style="fill:#5e5e5e; stroke:none;" d="M388 227L389 228L388 227z"/>
<path style="fill:#2b2b2b; stroke:none;" d="M115 228L116 229L115 228z"/>
<path style="fill:#5e5e5e; stroke:none;" d="M126 228L127 229L126 228M235 228L236 229L235 228M248 228L249 229L248 228z"/>
<path style="fill:#a5a5a5; stroke:none;" d="M276 228L277 229L276 228M305 228L306 229L305 228z"/>
<path style="fill:#5e5e5e; stroke:none;" d="M326 228L327 229L326 228M337 228L338 229L337 228M92 229L93 230L92 229z"/>
<path style="fill:#2b2b2b; stroke:none;" d="M103 229L104 230L103 229z"/>
<path style="fill:#a5a5a5; stroke:none;" d="M126 229L127 230L126 229z"/>
<path style="fill:#5e5e5e; stroke:none;" d="M234 229L235 230L234 229z"/>
<path style="fill:#a5a5a5; stroke:none;" d="M249 229L250 230L249 229z"/>
<path style="fill:#2b2b2b; stroke:none;" d="M276 229L277 230L276 229M305 229L306 230L305 229z"/>
<path style="fill:#a5a5a5; stroke:none;" d="M326 229L327 230L326 229z"/>
<path style="fill:#2b2b2b; stroke:none;" d="M349 229L350 230L349 229z"/>
<path style="fill:#5e5e5e; stroke:none;" d="M360 229L361 230L360 229M387 229L388 230L387 229z"/>
<path style="fill:#a5a5a5; stroke:none;" d="M92 230L93 231L92 230M116 230L117 231L116 230z"/>
<path style="fill:#5e5e5e; stroke:none;" d="M233 230L234 231L233 230z"/>
<path style="fill:#a5a5a5; stroke:none;" d="M250 230L251 231L250 230z"/>
<path style="fill:#2b2b2b; stroke:none;" d="M275 230L276 231L275 230z"/>
<path style="fill:#a5a5a5; stroke:none;" d="M306 230L307 231L306 230M336 230L337 231L336 230M360 230L361 231L360 230z"/>
<path style="fill:#5e5e5e; stroke:none;" d="M386 230L387 231L386 230z"/>
<path style="fill:#a5a5a5; stroke:none;" d="M102 231L103 232L102 231z"/>
<path style="fill:#5e5e5e; stroke:none;" d="M116 231L117 232L116 231M127 231L128 232L127 231z"/>
<path style="fill:#a5a5a5; stroke:none;" d="M231 231L232 232L231 231z"/>
<path style="fill:#2b2b2b; stroke:none;" d="M232 231L233 232L232 231z"/>
<path style="fill:#5e5e5e; stroke:none;" d="M251 231L252 232L251 231z"/>
<path style="fill:#a5a5a5; stroke:none;" d="M273 231L274 232L273 231z"/>
<path style="fill:#2b2b2b; stroke:none;" d="M274 231L275 232L274 231M306 231L307 232L306 231M325 231L326 232L325 231z"/>
<path style="fill:#5e5e5e; stroke:none;" d="M336 231L337 232L336 231z"/>
<path style="fill:#a5a5a5; stroke:none;" d="M350 231L351 232L350 231z"/>
<path style="fill:#5e5e5e; stroke:none;" d="M385 231L386 232L385 231M91 232L92 233L91 232M102 232L103 233L102 232z"/>
<path style="fill:#2b2b2b; stroke:none;" d="M116 232L117 233L116 232z"/>
<path style="fill:#a5a5a5; stroke:none;" d="M127 232L128 233L127 232M229 232L230 233L229 232z"/>
<path style="fill:#2b2b2b; stroke:none;" d="M230 232L231 233L230 232M252 232L253 233L252 232z"/>
<path style="fill:#a5a5a5; stroke:none;" d="M253 232L254 233L253 232M271 232L272 233L271 232z"/>
<path style="fill:#5e5e5e; stroke:none;" d="M272 232L273 233L272 232z"/>
<path style="fill:#a5a5a5; stroke:none;" d="M307 232L308 233L307 232M325 232L326 233L325 232z"/>
<path style="fill:#2b2b2b; stroke:none;" d="M336 232L337 233L336 232z"/>
<path style="fill:#5e5e5e; stroke:none;" d="M350 232L351 233L350 232M361 232L362 233L361 232M364 232L365 233L364 232z"/>
<path style="fill:#a5a5a5; stroke:none;" d="M383 232L384 233L383 232z"/>
<path style="fill:#2b2b2b; stroke:none;" d="M384 232L385 233L384 232z"/>
<path style="fill:#a5a5a5; stroke:none;" d="M91 233L92 234L91 233z"/>
<path style="fill:#2b2b2b; stroke:none;" d="M102 233L103 234L102 233z"/>
<path style="fill:#a5a5a5; stroke:none;" d="M224.667 233.333L225.333 233.667L224.667 233.333z"/>
<path style="fill:#5e5e5e; stroke:none;" d="M226 233L227 234L226 233z"/>
<path style="fill:#2b2b2b; stroke:none;" d="M227 233L228 234L227 233M254 233L255 234L254 233z"/>
<path style="fill:#5e5e5e; stroke:none;" d="M255 233L256 234L255 233z"/>
<path style="fill:#a5a5a5; stroke:none;" d="M256 233L257 234L256 233M269 233L270 234L269 233z"/>
<path style="fill:#2b2b2b; stroke:none;" d="M270 233L271 234L270 233M307 233L308 234L307 233M350 233L351 234L350 233z"/>
<path style="fill:#a5a5a5; stroke:none;" d="M361 233L362 234L361 233z"/>
<path style="fill:#5e5e5e; stroke:none;" d="M366 233L367 234L366 233z"/>
<path style="fill:#a5a5a5; stroke:none;" d="M367 233L368 234L367 233M381 233L382 234L381 233z"/>
<path style="fill:#2b2b2b; stroke:none;" d="M382 233L383 234L382 233M258 234L259 235L258 234z"/>
<path style="fill:#5e5e5e; stroke:none;" d="M259.667 234.333L260.333 234.667L259.667 234.333z"/>
<path style="fill:#a5a5a5; stroke:none;" d="M261 234L261 235L264 235L261 234z"/>
<path style="fill:#5e5e5e; stroke:none;" d="M264 234L264 235L267 235L264 234z"/>
<path style="fill:#2b2b2b; stroke:none;" d="M369 234L370 235L369 234z"/>
<path style="fill:#5e5e5e; stroke:none;" d="M370 234L370 235L373 235L370 234z"/>
<path style="fill:#a5a5a5; stroke:none;" d="M373 234L373 235L376 235L373 234z"/>
<path style="fill:#5e5e5e; stroke:none;" d="M376 234L376 235L379 235L376 234z"/>
<path style="fill:#2b2b2b; stroke:none;" d="M379 234L380 235L379 234z"/>
</svg>
